<svg xmlns="http://www.w3.org/2000/svg" version="1.1" xmlns:xlink="http://www.w3.org/1999/xlink" xmlns:svgjs="http://svgjs.dev/svgjs" width="2000" height="2250" viewBox="0 0 2000 2250"><g transform="matrix(1,0,0,1,0.00022954974565436714,0)"><svg viewBox="0 0 320 360" data-background-color="#001f3f" preserveAspectRatio="xMidYMid meet" height="2250" width="2000" xmlns="http://www.w3.org/2000/svg" xmlns:xlink="http://www.w3.org/1999/xlink"><g id="tight-bounds" transform="matrix(1,0,0,1,-0.00003672795929787753,0)"><svg viewBox="0 0 320 360" height="360" width="320"><g><svg></svg></g><g><svg viewBox="0 0 320 360" height="360" width="320"><g><path transform="translate(-32.1528,-12.1528) scale(3.84303,3.84303)" d="M88.492 50l1.711-2.963c2.946-5.102 1.198-11.626-3.904-14.572l-2.963-1.711v-3.422c0-5.891-4.776-10.667-10.667-10.667h-3.422l-1.711-2.963c-2.946-5.102-9.47-6.85-14.572-3.904l-2.964 1.71-2.963-1.711c-5.102-2.945-11.626-1.197-14.572 3.905l-1.711 2.963h-3.422c-5.891 0-10.667 4.776-10.667 10.667v3.422l-2.963 1.711c-5.102 2.946-6.85 9.47-3.904 14.572l1.71 2.963-1.711 2.963c-2.945 5.102-1.197 11.626 3.905 14.572l2.963 1.711v3.422c0 5.891 4.776 10.667 10.667 10.667h3.422l1.711 2.963c2.946 5.102 9.47 6.85 14.572 3.904l2.963-1.71 2.963 1.711c5.102 2.946 11.626 1.198 14.572-3.904l1.711-2.963h3.422c5.891 0 10.667-4.776 10.667-10.667v-3.422l2.963-1.711c5.102-2.946 6.85-9.47 3.904-14.572zM85.832 33.273c2.252 1.3 3.862 3.399 4.535 5.91 0.673 2.511 0.328 5.135-0.972 7.386l-1.441 2.497-4.618-7.999v-9.236zM73.72 73.72l-15.038 8.682h-17.364l-15.038-8.682-8.682-15.038v-17.364l8.682-15.038 15.038-8.682h17.364l15.038 8.682 8.682 15.038v17.364zM82.401 60.549v8.158l-7.065 4.079zM72.786 75.336l-4.079 7.065h-8.158zM57.065 83.335l-7.065 4.079-7.065-4.079zM39.451 82.401h-8.158l-4.079-7.065zM24.664 72.786l-7.065-4.079v-8.158zM16.665 57.065l-4.079-7.065 4.079-7.065zM17.599 39.451v-8.158l7.065-4.079zM27.214 24.664l4.079-7.065h8.158zM42.935 16.665l7.065-4.079 7.065 4.079zM60.549 17.599h8.158l4.079 7.065zM75.336 27.214l7.065 4.079v8.158zM83.335 42.935l4.079 7.065-4.079 7.065zM72.668 17.599c2.6 0 5.044 1.012 6.883 2.851 1.838 1.838 2.851 4.283 2.851 6.883v2.883l-7.999-4.618-4.618-7.999zM53.43 10.606c2.252-1.3 4.875-1.645 7.386-0.972 2.511 0.673 4.61 2.284 5.91 4.535l1.441 2.497h-9.236l-7.999-4.618zM33.273 14.168c1.3-2.252 3.399-3.862 5.91-4.535 2.511-0.673 5.135-0.328 7.386 0.972l2.497 1.441-7.999 4.618h-9.236zM17.599 27.332c0-2.6 1.012-5.044 2.851-6.883 1.838-1.838 4.283-2.851 6.883-2.851h2.883l-4.618 7.999-7.999 4.618zM10.606 46.57c-1.3-2.252-1.645-4.875-0.972-7.386 0.673-2.511 2.284-4.61 4.535-5.91l2.497-1.441v9.236l-4.618 7.999zM14.168 66.727c-2.252-1.3-3.862-3.399-4.535-5.91-0.673-2.511-0.328-5.135 0.972-7.386l1.441-2.497 4.618 7.999v9.236zM27.332 82.401c-2.6 0-5.044-1.012-6.883-2.851-1.838-1.838-2.851-4.283-2.851-6.883v-2.883l7.999 4.618 4.618 7.999zM46.57 89.394c-2.252 1.3-4.875 1.645-7.386 0.972-2.511-0.673-4.61-2.284-5.91-4.535l-1.441-2.497h9.236l7.999 4.618zM66.727 85.832c-1.3 2.252-3.399 3.862-5.91 4.535-2.511 0.673-5.135 0.328-7.386-0.972l-2.497-1.441 7.999-4.618h9.236zM82.401 72.668c0 2.6-1.012 5.044-2.851 6.883-1.838 1.838-4.283 2.851-6.883 2.851h-2.883l4.618-7.999 7.999-4.618zM90.367 60.816c-0.673 2.511-2.284 4.61-4.535 5.91l-2.497 1.441v-9.236l4.618-7.999 1.441 2.497c1.3 2.253 1.646 4.876 0.973 7.387z" fill="#8dbdff" fill-rule="nonzero" stroke="none" stroke-width="1" stroke-linecap="butt" stroke-linejoin="miter" stroke-miterlimit="10" stroke-dasharray="" stroke-dashoffset="0" font-family="none" font-weight="none" font-size="none" text-anchor="none" style="mix-blend-mode: normal" data-fill-palette-color="tertiary"></path></g><g transform="matrix(1,0,0,1,64,144.68982073476153)"><svg viewBox="0 0 192 70.62035853047695" height="70.62035853047695" width="192"><g><svg viewBox="0 0 391.1584130021053 143.8736842105263" height="70.62035853047695" width="192"><g><rect width="12.91012668631579" height="143.8736842105263" x="152.45214315789477" y="0" fill="#8dbdff" opacity="1" stroke-width="0" stroke="transparent" fill-opacity="1" class="rect-qz-0" data-fill-palette-color="primary" rx="1%" id="qz-0" data-palette-color="#8dbdff"></rect></g><g transform="matrix(1,0,0,1,199.15841300210528,0.3578947368420984)"><svg viewBox="0 0 192 143.1578947368421" height="143.1578947368421" width="192"><g id="textblocktransform"><svg viewBox="0 0 192 143.1578947368421" height="143.1578947368421" width="192" id="textblock"><g><svg viewBox="0 0 192 143.1578947368421" height="143.1578947368421" width="192"><g transform="matrix(1,0,0,1,0,0)"><svg width="192" viewBox="0.1 -35.65 57 42.5" height="143.1578947368421" data-palette-color="#8dbdff"><path d="M2.05-1.3L2.05-1.3Q1.05 0.95 1.05 2.33 1.05 3.7 1.98 4.9 2.9 6.1 4.45 6.1L4.45 6.1Q10.4 6.1 16.4 0.25L16.4 0.25Q21.65-4.95 25.2-12.5 28.75-20.05 28.75-25.8L28.75-25.8Q28.75-26.35 28.7-26.65L28.7-26.65Q27.7-26.2 26.3-26L26.3-26Q25.3-21 22.98-15.43 20.65-9.85 17.28-4.53 13.9 0.8 10.35 3.2L10.35 3.2Q8.35 4.45 6.85 4.45L6.85 4.45Q6.35 4.45 6.35 4.17 6.35 3.9 6.93 3.8 7.5 3.7 8.75 3.3L8.75 3.3Q12.9 1.45 17.2-5.3L17.2-5.3Q23.4-15.1 25.65-25.9L25.65-25.9 19.5-25.15Q14.35-24.65 11.55-23.95L11.55-23.95Q5.9-22.45 5.9-19.55L5.9-19.55Q5.9-17.4 8.1-15.1L8.1-15.1Q10.15-13.15 12.5-12.55L12.5-12.55Q12.8-12.5 12.8-12.4L12.8-12.4Q12.8-12.2 12.4-12.2L12.4-12.2Q9.65-12.2 7.35-14.5L7.35-14.5Q5.1-16.8 5.1-19.7 5.1-22.6 9.5-24.6L9.5-24.6Q13.05-26.25 17.23-26.9 21.4-27.55 26.1-28.2L26.1-28.2Q26.5-31.3 26.5-35.3L26.5-35.3Q26.5-35.65 26.8-35.65L26.8-35.65Q27.05-35.65 27.05-33.13 27.05-30.6 26.7-28.3L26.7-28.3Q27.55-28.45 28.75-28.8L28.75-28.8Q29-29.15 29.45-29.15 29.9-29.15 30-28.4L30-28.4Q30.15-26.95 31.45-19.75L31.45-19.75Q33.3-9.3 35.85-3.65L35.85-3.65Q36.85-5.85 38.27-13.23 39.7-20.6 40.85-23.85L40.85-23.85Q43.35-30.85 47.9-33.4L47.9-33.4Q49.25-34.15 50.6-34.15L50.6-34.15Q52.9-34.15 55-31.5L55-31.5Q57.1-29 57.1-26.75L57.1-26.75Q57.1-26.55 56.95-26.55 56.8-26.55 56.65-26.95L56.65-26.95Q56.05-29 54.73-30.38 53.4-31.75 51.4-31.75L51.4-31.75Q50.35-31.75 49.25-31.2L49.25-31.2Q44.75-29.15 42-22.3L42-22.3Q40.75-19.15 39.63-14.43 38.5-9.7 38.3-8.8L38.3-8.8Q37.25-4.8 36.35-2.7L36.35-2.7Q38.4 1.5 40.9 1.5L40.9 1.5Q42.3 1.5 43.85 0.25L43.85 0.25Q45.5-1.05 45.35-1.05L45.35-1.05Q45.45-1.05 45.45-0.83 45.45-0.6 45.15-0.4L45.15-0.4Q42.25 2.5 39.53 2.5 36.8 2.5 34.65-0.5L34.65-0.5Q34.1-0.2 33.3-0.2 32.5-0.2 32.5-0.8L32.5-0.8Q32.5-0.95 33.1-1.07 33.7-1.2 34.05-1.4L34.05-1.4Q31.9-4.8 30.85-11.45L30.85-11.45Q29.95-20.25 29.8-22.15L29.8-22.15Q28.6-15.35 24.58-8.58 20.55-1.8 15.18 2.53 9.8 6.85 4.25 6.85L4.25 6.85Q2.4 6.85 1.25 5.83 0.1 4.8 0.1 2.8 0.1 0.8 1.65-1.35L1.65-1.35Q1.8-1.5 1.93-1.5 2.05-1.5 2.05-1.3Z" opacity="1" transform="matrix(1,0,0,1,0,0)" fill="#8dbdff" class="wordmark-text-0" data-fill-palette-color="primary" id="text-0"></path></svg></g></svg></g></svg></g></svg></g><g transform="matrix(1,0,0,1,0,27.591024737245306)"><svg viewBox="0 0 118.65600000000002 88.6916347360357" height="88.6916347360357" width="118.65600000000002"><g><svg xmlns="http://www.w3.org/2000/svg" xmlns:xlink="http://www.w3.org/1999/xlink" version="1.1" x="0" y="0" viewBox="1.1 13.399999999999999 97.80000000000001 73.10242952049867" enable-background="new 0 0 100 100" xml:space="preserve" height="88.6916347360357" width="118.65600000000002" class="icon-icon-0" data-fill-palette-color="accent" id="icon-0"><path d="M1.1 79.9v-4.1h5.4 0.3V33.2c0-3.4 2.7-6.1 6.1-6.1h23.7c-0.5 2-0.8 4.1-0.8 6.3 0 0.7 0 1.3 0.1 2H15v40.4h21.2v0.4c0 1.3 1 2.3 2.3 2.3h11.6c1.3 0 2.3-1 2.3-2.3v-0.4h21.2V58.5H79c1 0 2-0.1 3-0.2v17.4h0.3 5.4v4.1c0 3.7-3 6.7-6.7 6.7h-6.4H14.2 7.8C4.1 86.6 1.1 83.6 1.1 79.9zM40.8 33.4c0-11 9-20 20-20h18.1c11 0 20 9 20 20 0 11-9 20-20 20H65.4l-9.2 9.2c-0.6 0.6-1.7 0.2-1.7-0.7v-9.5C46.5 49.7 40.8 42.3 40.8 33.4zM52.7 33.5c0 1.1 0.2 2.1 0.6 3.1 0.4 1 1 1.9 1.8 2.7 0.8 0.8 1.7 1.4 2.7 1.8 1 0.4 2 0.6 3.1 0.6 1.1 0 2.1-0.2 3.1-0.6 1-0.4 1.9-1 2.7-1.8l0.6-0.6-2.6-2.6-0.6 0.6c-0.9 0.9-2 1.3-3.2 1.3-1.2 0-2.3-0.5-3.2-1.3-0.9-0.9-1.3-2-1.3-3.2s0.5-2.3 1.3-3.2c0.9-0.9 2-1.3 3.2-1.3 1.2 0 2.3 0.5 3.2 1.3l3.2 3.2 5.8 5.8c0.8 0.8 1.7 1.4 2.7 1.8 1 0.4 2 0.6 3.1 0.6 1.1 0 2.1-0.2 3.1-0.6 1-0.4 1.9-1 2.7-1.8 0.8-0.8 1.4-1.7 1.8-2.7 0.4-1 0.6-2 0.6-3.1 0-1.1-0.2-2.1-0.6-3.1-0.4-1-1-1.9-1.8-2.7-0.8-0.8-1.7-1.4-2.7-1.8-1-0.4-2-0.6-3.1-0.6-1.1 0-2.1 0.2-3.1 0.6-1 0.4-1.9 1-2.7 1.8l-0.7 0.7L75 31l0.7-0.7c0.9-0.9 2-1.3 3.2-1.3 1.2 0 2.3 0.5 3.2 1.3 0.9 0.9 1.3 2 1.3 3.2s-0.5 2.3-1.3 3.2c-0.9 0.9-2 1.3-3.2 1.3-1.2 0-2.3-0.5-3.2-1.3l-1.3-1.3-7.7-7.7c-0.8-0.8-1.7-1.4-2.7-1.8-1-0.4-2-0.6-3.1-0.6-1.1 0-2.1 0.2-3.1 0.6-1 0.4-1.9 1-2.7 1.8-0.8 0.8-1.4 1.7-1.8 2.7C52.9 31.4 52.7 32.4 52.7 33.5z" fill="#8dbdff" data-fill-palette-color="accent"></path></svg></g></svg></g></svg></g></svg></g></svg></g><defs></defs></svg><rect width="320" height="360" fill="none" stroke="none" visibility="hidden"></rect></g></svg></g></svg>